<?xml version="1.0" standalone="no"?>
<!DOCTYPE svg PUBLIC "-//W3C//DTD SVG 20010904//EN"
 "http://www.w3.org/TR/2001/REC-SVG-20010904/DTD/svg10.dtd">
<svg version="1.0" xmlns="http://www.w3.org/2000/svg"
 width="377.000000pt" height="249.000000pt" viewBox="0 0 377.000000 249.000000"
 preserveAspectRatio="xMidYMid meet">

<g transform="translate(0.000000,249.000000) scale(0.100000,-0.100000)"
fill="#000000" stroke="none">
<path d="M2076 2206 c-20 -44 -30 -56 -59 -65 -25 -9 -38 -21 -47 -44 -6 -18
-16 -40 -21 -49 -5 -10 -9 -171 -9 -358 l0 -340 -55 0 -55 0 0 -60 0 -60 255
0 255 0 0 59 0 60 -52 3 -53 3 0 390 0 390 53 3 52 3 0 60 0 59 -120 0 -120 0
-24 -54z"/>
<path d="M2712 1973 c-67 -159 -153 -362 -191 -453 -62 -148 -72 -165 -95
-168 -25 -3 -26 -6 -26 -63 l0 -59 200 0 200 0 0 60 c0 58 -1 60 -26 60 -22 0
-25 3 -20 23 3 12 6 25 6 30 0 4 92 7 203 7 l204 0 11 -25 c16 -35 16 -35 -13
-35 -24 0 -25 -3 -25 -60 l0 -60 200 0 200 0 0 59 c0 57 -1 60 -26 63 -24 3
-39 35 -217 456 l-191 452 -136 0 -137 0 -121 -287z m317 -199 c28 -73 51
-135 51 -138 0 -3 -52 -6 -116 -6 -89 0 -115 3 -111 13 3 6 29 72 58 145 29
73 56 129 59 125 4 -5 30 -67 59 -139z"/>
<path d="M814 1140 c-28 -11 -54 -48 -54 -78 0 -33 40 -69 91 -82 93 -23 116
-54 74 -96 -30 -29 -68 -31 -120 -4 -46 23 -71 11 -31 -15 57 -38 137 -40 175
-4 65 60 20 128 -101 153 -15 3 -34 13 -42 22 -53 52 39 108 113 69 27 -14 41
-11 41 7 0 13 -65 38 -97 37 -15 0 -38 -4 -49 -9z"/>
<path d="M3000 1133 c-53 -28 -80 -75 -80 -142 0 -97 56 -154 151 -155 151 0
211 195 87 287 -37 28 -114 33 -158 10z m130 -28 c38 -20 60 -63 60 -119 0
-84 -86 -147 -159 -116 -67 28 -100 111 -71 181 26 61 107 87 170 54z"/>
<path d="M260 990 c0 -127 2 -150 15 -150 13 0 15 23 15 150 0 127 -2 150 -15
150 -13 0 -15 -23 -15 -150z"/>
<path d="M400 990 c0 -127 2 -150 15 -150 13 0 15 20 15 120 0 66 4 120 8 120
5 0 51 -54 102 -120 51 -66 99 -120 107 -120 10 0 13 31 13 150 0 125 -2 150
-15 150 -12 0 -15 -22 -17 -120 l-3 -121 -94 121 c-128 164 -131 163 -131 -30z"/>
<path d="M1040 1130 c0 -5 23 -10 50 -10 l50 0 0 -140 c0 -117 2 -140 15 -140
12 0 15 24 17 138 l3 137 53 3 c28 2 52 7 52 13 0 5 -51 9 -120 9 -73 0 -120
-4 -120 -10z"/>
<path d="M1370 990 c0 -127 2 -150 15 -150 13 0 15 23 15 150 0 127 -2 150
-15 150 -13 0 -15 -23 -15 -150z"/>
<path d="M1490 1130 c0 -5 23 -10 50 -10 l50 0 0 -140 c0 -117 2 -140 15 -140
12 0 15 24 17 138 l3 137 53 3 c28 2 52 7 52 13 0 5 -51 9 -120 9 -73 0 -120
-4 -120 -10z"/>
<path d="M1810 1029 c0 -86 4 -117 17 -139 46 -78 178 -72 220 11 19 36 18
239 -1 239 -11 0 -15 -24 -18 -115 -3 -103 -5 -117 -26 -137 -35 -35 -106 -32
-138 5 -22 26 -24 36 -24 138 0 90 -3 109 -15 109 -12 0 -15 -19 -15 -111z"/>
<path d="M2140 1131 c0 -6 24 -11 53 -13 l52 -3 3 -137 c2 -114 5 -138 17
-138 13 0 15 23 15 140 l0 140 50 0 c28 0 50 5 50 10 0 6 -47 10 -120 10 -69
0 -120 -4 -120 -9z"/>
<path d="M2470 990 l0 -150 110 0 c91 0 110 3 110 15 0 12 -17 15 -95 15 l-95
0 0 55 0 55 85 0 c69 0 85 3 85 15 0 12 -16 15 -85 15 l-85 0 0 55 0 55 95 0
c57 0 95 4 95 10 0 6 -43 10 -110 10 l-110 0 0 -150z"/>
<path d="M3320 990 c0 -127 2 -150 15 -150 12 0 15 14 15 65 l0 65 85 0 c69 0
85 3 85 15 0 12 -16 15 -85 15 l-86 0 3 58 3 57 93 3 c131 4 116 22 -18 22
l-110 0 0 -150z"/>
<path d="M361 748 c-5 -13 -34 -81 -65 -152 -31 -72 -56 -131 -56 -133 0 -2
15 -3 33 -3 28 0 36 5 48 33 14 31 16 32 81 35 l66 3 12 -36 c10 -31 15 -35
47 -35 29 0 34 3 29 18 -4 9 -32 79 -64 154 -57 137 -57 137 -90 138 -25 0
-35 -5 -41 -22z m63 -111 c9 -23 16 -46 16 -50 0 -4 -18 -7 -41 -7 -29 0 -40
4 -36 13 2 6 10 29 18 50 7 20 16 37 20 37 3 0 14 -19 23 -43z"/>
<path d="M670 752 c-53 -26 -80 -74 -80 -142 0 -43 6 -65 23 -90 46 -68 140
-89 225 -50 l42 19 0 71 0 70 -65 0 c-62 0 -65 -1 -65 -24 0 -21 6 -25 32 -28
65 -6 40 -68 -27 -68 -39 0 -74 24 -90 64 -17 40 -9 79 22 111 29 29 87 34
119 11 17 -13 22 -12 42 6 29 28 28 33 -12 52 -45 21 -122 20 -166 -2z"/>
<path d="M950 615 l0 -155 35 0 35 0 0 50 c0 48 1 50 28 50 21 0 34 -11 60
-50 30 -46 35 -50 73 -50 l41 0 -36 49 -36 49 30 30 c24 24 30 39 30 72 0 84
-40 110 -175 110 l-85 0 0 -155z m184 76 c36 -40 -4 -81 -80 -81 l-34 0 0 50
0 50 48 0 c36 0 54 -5 66 -19z"/>
<path d="M1280 615 l0 -155 35 0 35 0 0 155 0 155 -35 0 -35 0 0 -155z"/>
<path d="M1500 752 c-75 -41 -104 -154 -57 -223 39 -58 83 -81 148 -77 37 3
66 12 88 27 l32 23 -22 24 -22 23 -25 -19 c-62 -49 -152 -2 -152 80 0 79 86
128 149 84 22 -16 24 -15 44 5 l21 21 -22 22 c-31 31 -133 37 -182 10z"/>
<path d="M1760 665 c0 -153 27 -203 113 -212 62 -7 114 12 138 51 16 26 19 50
19 149 l0 117 -30 0 -30 0 0 -104 c0 -89 -3 -107 -21 -130 -25 -32 -70 -35
-99 -6 -18 18 -20 33 -20 130 l0 110 -35 0 -35 0 0 -105z"/>
<path d="M2110 615 l0 -155 110 0 110 0 0 25 c0 23 -3 24 -77 27 l-78 3 -3
128 -3 127 -29 0 -30 0 0 -155z"/>
<path d="M2320 740 c0 -29 1 -30 50 -30 l50 0 0 -125 0 -125 30 0 30 0 0 125
0 125 50 0 c49 0 50 1 50 30 l0 30 -130 0 -130 0 0 -30z"/>
<path d="M2630 665 c0 -153 27 -203 113 -212 62 -7 114 12 138 51 16 26 19 50
19 149 l0 117 -30 0 -30 0 0 -105 c0 -99 -2 -107 -25 -130 -29 -30 -68 -32
-95 -5 -18 18 -20 33 -20 130 l0 110 -35 0 -35 0 0 -105z"/>
<path d="M2980 616 l0 -156 29 0 c28 0 30 2 33 48 3 43 5 47 30 50 22 3 32 -5
60 -47 30 -47 36 -51 71 -51 42 0 42 1 -5 69 l-24 33 33 33 c44 44 45 91 4
137 -28 32 -31 32 -130 36 l-101 4 0 -156z m171 84 c11 -6 19 -21 19 -35 0
-34 -39 -57 -87 -53 -35 3 -38 6 -41 36 -2 19 -1 40 2 48 6 17 78 19 107 4z"/>
<path d="M3310 615 l0 -155 115 0 115 0 0 25 c0 25 -1 25 -85 25 l-85 0 0 35
0 35 75 0 75 0 0 30 0 30 -75 0 -75 0 0 35 0 35 85 0 85 0 0 30 0 30 -115 0
-115 0 0 -155z"/>
<path d="M240 350 c0 -5 9 -10 20 -10 18 0 20 -7 20 -55 0 -30 5 -55 10 -55 6
0 10 25 10 55 0 48 2 55 20 55 11 0 20 5 20 10 0 6 -22 10 -50 10 -27 0 -50
-4 -50 -10z"/>
<path d="M370 295 c0 -64 16 -91 22 -37 2 22 8 28 36 30 30 3 32 1 32 -27 0
-17 5 -31 10 -31 6 0 10 28 10 65 0 37 -4 65 -10 65 -5 0 -10 -14 -10 -31 0
-28 -2 -30 -32 -27 -28 2 -34 8 -36 31 -6 53 -22 26 -22 -38z"/>
<path d="M520 295 l0 -65 50 0 c28 0 50 5 50 10 0 6 -18 10 -40 10 -33 0 -40
3 -40 20 0 16 7 20 38 21 l37 2 -35 6 c-26 4 -35 11 -35 26 0 16 9 21 40 26
39 6 39 6 -12 8 l-53 1 0 -65z"/>
<path d="M710 314 c0 -63 13 -84 53 -84 18 0 38 5 45 12 14 14 16 118 2 118
-5 0 -10 -22 -10 -50 0 -38 -4 -52 -19 -60 -30 -15 -51 12 -51 66 0 24 -4 44
-10 44 -5 0 -10 -21 -10 -46z"/>
<path d="M860 295 c0 -75 17 -89 22 -17 l3 47 35 -47 c49 -66 60 -62 60 17 0
74 -17 89 -22 18 l-3 -47 -35 47 c-49 65 -60 61 -60 -18z"/>
<path d="M1020 295 c0 -37 4 -65 10 -65 6 0 10 28 10 65 0 37 -4 65 -10 65 -6
0 -10 -28 -10 -65z"/>
<path d="M1070 356 c0 -18 55 -126 64 -126 14 0 61 119 51 128 -4 4 -9 3 -12
-3 -2 -5 -12 -28 -22 -50 l-19 -40 -20 48 c-12 26 -26 47 -32 47 -5 0 -10 -2
-10 -4z"/>
<path d="M1230 295 l0 -65 45 0 c25 0 45 5 45 10 0 6 -16 10 -35 10 -28 0 -35
4 -35 19 0 15 8 21 33 24 l32 4 -32 1 c-28 2 -33 6 -33 26 0 21 5 25 38 29 34
3 33 4 -10 5 l-48 2 0 -65z"/>
<path d="M1360 295 c0 -37 4 -65 10 -65 6 0 10 11 10 25 0 15 6 25 15 25 8 0
22 -11 31 -25 9 -14 23 -25 32 -25 13 0 13 3 -2 19 -16 18 -16 21 -1 44 26 41
6 67 -50 67 l-45 0 0 -65z m80 26 c0 -19 -18 -31 -46 -31 -8 0 -14 10 -14 25
0 21 5 25 30 25 23 0 30 -5 30 -19z"/>
<path d="M1504 346 c-11 -29 1 -50 34 -58 32 -9 43 -32 20 -41 -7 -2 -23 0
-35 4 -13 5 -25 4 -28 -1 -7 -12 34 -23 66 -18 19 2 24 9 24 33 0 25 -5 31
-33 39 -22 6 -32 14 -30 25 4 15 18 18 45 10 6 -2 13 1 15 6 6 17 -71 18 -78
1z"/>
<path d="M1630 295 c0 -37 4 -65 10 -65 6 0 10 28 10 65 0 37 -4 65 -10 65 -6
0 -10 -28 -10 -65z"/>
<path d="M1680 350 c0 -5 9 -10 20 -10 18 0 20 -7 20 -55 0 -30 5 -55 10 -55
6 0 10 25 10 55 0 48 2 55 20 55 11 0 20 5 20 10 0 6 -22 10 -50 10 -27 0 -50
-4 -50 -10z"/>
<path d="M1810 354 c0 -3 10 -19 21 -36 12 -17 25 -44 29 -62 7 -26 8 -27 9
-7 1 14 13 42 27 63 32 46 23 65 -10 23 l-23 -29 -18 27 c-16 25 -35 36 -35
21z"/>
<path d="M2027 342 c-22 -25 -21 -75 1 -95 21 -19 64 -22 92 -7 27 14 35 65
16 95 -21 31 -84 35 -109 7z m83 -12 c23 -23 25 -40 8 -62 -20 -24 -44 -28
-67 -12 -27 20 -27 59 1 78 29 20 34 20 58 -4z"/>
<path d="M2180 295 c0 -64 16 -91 22 -37 2 22 9 28 38 33 l35 6 -37 2 c-31 1
-38 5 -38 21 0 17 7 20 40 20 22 0 40 5 40 10 0 6 -22 10 -50 10 l-50 0 0 -65z"/>
<path d="M2360 350 c0 -5 9 -10 20 -10 18 0 20 -7 20 -55 0 -30 5 -55 10 -55
6 0 10 25 10 55 0 52 1 55 25 55 14 0 25 5 25 10 0 6 -25 10 -55 10 -30 0 -55
-4 -55 -10z"/>
<path d="M2500 295 l0 -65 45 0 c25 0 45 5 45 10 0 6 -16 10 -35 10 -28 0 -35
4 -35 19 0 15 8 21 33 24 l32 4 -32 1 c-28 2 -33 6 -33 26 0 21 5 25 38 29 34
3 33 4 -10 5 l-48 2 0 -65z"/>
<path d="M2630 295 c0 -74 17 -89 22 -19 l3 46 34 -46 c19 -25 38 -46 43 -46
4 0 8 29 8 65 0 37 -4 65 -10 65 -5 0 -10 -19 -10 -42 l-1 -43 -37 43 c-20 23
-40 42 -44 42 -5 0 -8 -29 -8 -65z"/>
<path d="M2780 295 c0 -37 4 -65 10 -65 6 0 10 21 10 48 l1 47 40 -47 c23 -27
45 -48 50 -48 5 0 9 29 9 65 0 37 -4 65 -10 65 -5 0 -10 -18 -10 -40 0 -22 -4
-40 -9 -40 -4 0 -21 18 -36 40 -41 59 -55 53 -55 -25z"/>
<path d="M2940 295 l0 -65 50 0 c28 0 50 5 50 10 0 6 -18 10 -40 10 -33 0 -40
3 -40 19 0 15 8 21 38 24 l37 4 -38 1 c-34 2 -38 5 -35 25 2 17 11 23 43 28
39 6 39 6 -12 8 l-53 1 0 -65z"/>
<path d="M3074 346 c-11 -29 1 -50 34 -58 32 -9 43 -32 20 -41 -7 -2 -23 0
-35 4 -13 5 -25 4 -28 -1 -7 -12 34 -23 66 -18 19 2 24 9 24 33 0 25 -5 31
-33 39 -22 6 -32 14 -30 25 4 15 18 18 45 10 6 -2 13 1 15 6 6 17 -71 18 -78
1z"/>
<path d="M3197 353 c-4 -3 -7 -16 -7 -28 0 -16 11 -26 42 -39 39 -15 41 -17
26 -32 -12 -13 -20 -14 -37 -5 -24 14 -52 4 -30 -10 22 -14 75 -10 89 6 18 22
6 42 -35 59 -53 23 -47 41 14 36 14 -1 21 2 17 9 -8 12 -68 15 -79 4z"/>
<path d="M3320 295 l0 -65 50 0 c28 0 50 5 50 10 0 6 -18 10 -40 10 -33 0 -40
3 -40 19 0 15 8 21 38 24 l37 4 -37 1 c-33 2 -38 5 -38 26 0 22 5 25 43 29 40
3 40 4 -10 5 l-53 2 0 -65z"/>
<path d="M3450 295 l0 -65 50 0 c28 0 50 5 50 10 0 6 -18 10 -40 10 -33 0 -40
3 -40 20 0 16 7 20 38 21 l37 2 -35 6 c-26 4 -35 11 -35 26 0 16 9 21 40 26
39 6 39 6 -12 8 l-53 1 0 -65z"/>
</g>
</svg>
